<svg width="54" height="10" viewBox="0 0 54 10" fill="none" xmlns="http://www.w3.org/2000/svg">
<path d="M5.1139 9.3584H0.859852C0.82558 9.3584 0.808444 9.33698 0.808444 9.29414L0.821296 0.252684C0.821296 0.218412 0.838432 0.201275 0.872704 0.201275H5.10105C5.13532 0.201275 5.15245 0.222696 5.15245 0.265536V1.7371C5.15245 1.77137 5.13532 1.78851 5.10105 1.78851H2.4021V3.84485H5.10105C5.13532 3.84485 5.15245 3.86198 5.15245 3.89625L5.16531 5.3871C5.16531 5.42137 5.14817 5.43851 5.1139 5.43851H2.4021V7.73903H5.1139C5.14817 7.73903 5.16531 7.76045 5.16531 7.80329V9.30699C5.16531 9.34126 5.14817 9.3584 5.1139 9.3584ZM10.9035 9.3584H6.64947C6.61519 9.3584 6.59806 9.33698 6.59806 9.29414L6.61091 0.265536C6.61091 0.222696 6.63233 0.201275 6.67517 0.201275H8.14031C8.18315 0.201275 8.20457 0.222696 8.20457 0.265536L8.19172 7.73903H10.9035C10.9464 7.73903 10.9678 7.76045 10.9678 7.80329V9.29414C10.9678 9.33698 10.9464 9.3584 10.9035 9.3584ZM14.5275 9.48692C14.0606 9.48692 13.63 9.36697 13.2359 9.12706C12.8461 8.88715 12.5312 8.56799 12.2913 8.16958C12.0557 7.76688 11.9379 7.32562 11.9379 6.84581L11.9507 2.67531C11.9507 2.18693 12.0685 1.74781 12.3041 1.35796C12.5355 0.963833 12.8482 0.648957 13.2423 0.413335C13.6365 0.173429 14.0649 0.0534762 14.5275 0.0534762C15.0074 0.0534762 15.4379 0.171287 15.8192 0.406909C16.2047 0.642531 16.5132 0.959549 16.7445 1.35796C16.9802 1.7521 17.098 2.19121 17.098 2.67531L17.1108 6.84581C17.1108 7.32562 16.9952 7.76474 16.7638 8.16315C16.5282 8.56585 16.2155 8.88715 15.8256 9.12706C15.4358 9.36697 15.0031 9.48692 14.5275 9.48692ZM14.5275 7.89968C14.7932 7.89968 15.0245 7.79258 15.2216 7.57838C15.4186 7.3599 15.5172 7.11571 15.5172 6.84581L15.5043 2.67531C15.5043 2.38399 15.4122 2.13766 15.228 1.93631C15.0438 1.73496 14.8103 1.63428 14.5275 1.63428C14.2577 1.63428 14.0263 1.73282 13.8335 1.92988C13.6408 2.12695 13.5444 2.37542 13.5444 2.67531V6.84581C13.5444 7.13284 13.6408 7.38132 13.8335 7.59123C14.0263 7.79687 14.2577 7.89968 14.5275 7.89968ZM19.8031 9.3584H18.4857C18.4172 9.3584 18.3829 9.32841 18.3829 9.26843L18.3701 0.304092C18.3701 0.235548 18.4043 0.201275 18.4729 0.201275H19.6617L21.8851 5.3871L21.8209 0.304092C21.8209 0.235548 21.8594 0.201275 21.9365 0.201275H23.241C23.2924 0.201275 23.3181 0.235548 23.3181 0.304092L23.331 9.28129C23.331 9.33269 23.3096 9.3584 23.2667 9.3584H22.11L19.8288 4.51316L19.9252 9.25558C19.9252 9.32413 19.8845 9.3584 19.8031 9.3584ZM29.9622 9.3584H28.4713C28.437 9.3584 28.4199 9.33698 28.4199 9.29414L28.4456 0.252684C28.4456 0.218412 28.4627 0.201275 28.497 0.201275H30.1035C30.1378 0.201275 30.1678 0.218412 30.1935 0.252684L31.3952 1.98772L32.5904 0.252684C32.6161 0.218412 32.6482 0.201275 32.6868 0.201275H34.2997C34.3383 0.201275 34.3576 0.218412 34.3576 0.252684L34.3833 9.29414C34.3833 9.33698 34.3661 9.3584 34.3319 9.3584H32.841C32.8068 9.3584 32.7896 9.33698 32.7896 9.29414L32.7768 2.57891L31.3952 4.58384L30.0264 2.57891L30.0136 9.29414C30.0136 9.33698 29.9964 9.3584 29.9622 9.3584ZM38.1744 9.48692C37.7117 9.48692 37.2833 9.36697 36.8892 9.12706C36.495 8.88715 36.1802 8.56585 35.9446 8.16315C35.7132 7.75617 35.5975 7.31277 35.5975 6.83296L35.6232 0.252684C35.6232 0.218412 35.6404 0.201275 35.6747 0.201275H37.1526C37.1869 0.201275 37.2041 0.218412 37.2041 0.252684V6.83296C37.2041 7.12856 37.2983 7.38132 37.4868 7.59123C37.6753 7.79687 37.9045 7.89968 38.1744 7.89968C38.4571 7.89968 38.6928 7.79687 38.8813 7.59123C39.0698 7.38132 39.164 7.12856 39.164 6.83296V0.252684C39.164 0.218412 39.1811 0.201275 39.2154 0.201275H40.6934C40.7277 0.201275 40.7448 0.218412 40.7448 0.252684L40.7705 6.83296C40.7705 7.31706 40.6548 7.7626 40.4235 8.16958C40.1879 8.57228 39.8752 8.89358 39.4853 9.13349C39.0955 9.36911 38.6585 9.48692 38.1744 9.48692ZM44.3046 9.48692C43.8376 9.48692 43.4071 9.36697 43.0129 9.12706C42.6231 8.88715 42.3104 8.56799 42.0747 8.16958C41.8434 7.76688 41.7277 7.32562 41.7277 6.84581V6.24176C41.7277 6.19464 41.7492 6.17108 41.792 6.17108H43.27C43.3043 6.17108 43.3214 6.19464 43.3214 6.24176V6.84581C43.3214 7.13284 43.4178 7.38132 43.6106 7.59123C43.8034 7.79687 44.0347 7.89968 44.3046 7.89968C44.5788 7.89968 44.8122 7.79473 45.005 7.58481C45.1978 7.37061 45.2942 7.12427 45.2942 6.84581C45.2942 6.52451 45.0843 6.24391 44.6644 6.004C44.5959 5.96116 44.5059 5.90975 44.3946 5.84977C44.2874 5.78551 44.1589 5.71269 44.009 5.63129C43.859 5.54989 43.7134 5.47064 43.572 5.39352C43.4306 5.31213 43.2936 5.23502 43.1607 5.16219C42.6809 4.87944 42.3232 4.52601 42.0876 4.10189C41.8563 3.67349 41.7406 3.19367 41.7406 2.66245C41.7406 2.17407 41.8605 1.73282 42.1005 1.33869C42.3404 0.948839 42.6531 0.640389 43.0387 0.413335C43.4285 0.181997 43.8505 0.0663283 44.3046 0.0663283C44.7715 0.0663283 45.1999 0.181997 45.5898 0.413335C45.9796 0.648957 46.2902 0.961691 46.5216 1.35154C46.7572 1.74139 46.875 2.17836 46.875 2.66245V3.74203C46.875 3.7763 46.8579 3.79344 46.8236 3.79344H45.3456C45.3113 3.79344 45.2942 3.7763 45.2942 3.74203L45.2813 2.66245C45.2813 2.354 45.185 2.10339 44.9922 1.91061C44.7994 1.71782 44.5702 1.62143 44.3046 1.62143C44.0347 1.62143 43.8034 1.72425 43.6106 1.92988C43.4178 2.13552 43.3214 2.37971 43.3214 2.66245C43.3214 2.94948 43.3814 3.18939 43.5013 3.38217C43.6256 3.57495 43.8505 3.75917 44.1761 3.93481C44.2103 3.95195 44.2896 3.99479 44.4138 4.06333C44.5381 4.13188 44.6752 4.20899 44.8251 4.29467C44.9793 4.37607 45.1186 4.45104 45.2428 4.51958C45.367 4.58384 45.442 4.6224 45.4677 4.63525C45.9047 4.87944 46.2495 5.17932 46.5023 5.5349C46.7593 5.89047 46.8879 6.32744 46.8879 6.84581C46.8879 7.34704 46.7722 7.79687 46.5409 8.19528C46.3052 8.5937 45.9925 8.90857 45.6026 9.13991C45.2128 9.37125 44.7801 9.48692 44.3046 9.48692ZM49.6058 9.3584H48.115C48.0807 9.3584 48.0636 9.33698 48.0636 9.29414L48.0893 0.265536C48.0893 0.222696 48.1064 0.201275 48.1407 0.201275H49.6187C49.6529 0.201275 49.6701 0.222696 49.6701 0.265536V3.38217L51.7328 0.252684C51.7671 0.218412 51.7992 0.201275 51.8292 0.201275H53.3394C53.3779 0.201275 53.3865 0.218412 53.3651 0.252684L51.0902 3.8834L53.6414 9.30699C53.6628 9.34126 53.6414 9.3584 53.5771 9.3584H51.9706C51.9278 9.3584 51.9021 9.34126 51.8935 9.30699L50.1135 5.43851L49.6572 6.15822V9.29414C49.6572 9.33698 49.6401 9.3584 49.6058 9.3584Z" fill="black"/>
</svg>
