<svg width="28" height="28" viewBox="0 0 28 28" fill="none" xmlns="http://www.w3.org/2000/svg">
<circle cx="14" cy="14" r="14" fill="#FF7F0A"/>
<path d="M20.1877 12.3243C20.4628 10.5263 19.0626 9.55979 17.1479 8.915L17.769 6.47942L16.2526 6.10995L15.648 8.48134C15.2493 8.38422 14.8399 8.2926 14.433 8.20181L15.042 5.81479L13.5265 5.44531L12.905 7.88004C12.575 7.80657 12.251 7.73395 11.9366 7.65752L11.9384 7.64992L9.8471 7.1394L9.4437 8.72287C9.4437 8.72287 10.5688 8.97495 10.545 8.99058C11.1592 9.14048 11.2702 9.53782 11.2516 9.85282L10.5442 12.6275C10.5865 12.638 10.6414 12.6532 10.7018 12.6769C10.6513 12.6646 10.5973 12.6511 10.5416 12.638L9.54994 16.5249C9.47479 16.7073 9.28433 16.9809 8.85502 16.8771C8.87014 16.8986 7.75281 16.6081 7.75281 16.6081L7 18.3051L8.97336 18.7861C9.34047 18.876 9.70024 18.9702 10.0544 19.0589L9.42686 21.5223L10.9415 21.8918L11.563 19.4545C11.9768 19.5643 12.3785 19.6657 12.7715 19.7611L12.1522 22.1869L13.6686 22.5564L14.2961 20.0976C16.8819 20.576 18.8263 20.3831 19.6448 18.0965C20.3043 16.2555 19.6119 15.1935 18.2515 14.501C19.2422 14.2777 19.9886 13.6405 20.1877 12.3243ZM16.723 17.0743C16.2543 18.9153 13.0838 17.92 12.0558 17.6705L12.8885 14.4069C13.9165 14.6577 17.2127 15.1543 16.723 17.0743ZM17.192 12.2977C16.7644 13.9724 14.1255 13.1215 13.2695 12.9129L14.0244 9.95291C14.8805 10.1615 17.6373 10.5508 17.192 12.2977Z" fill="white"/>
</svg>
